<svg width="21" height="22" viewBox="0 0 21 22" fill="none" xmlns="http://www.w3.org/2000/svg">
<path d="M10.5 9.625C9.57174 9.625 8.6815 9.26284 8.02513 8.61818C7.36875 7.97352 7 7.09918 7 6.1875C7 5.27582 7.36875 4.40148 8.02513 3.75682C8.6815 3.11216 9.57174 2.75 10.5 2.75C11.4283 2.75 12.3185 3.11216 12.9749 3.75682C13.6313 4.40148 14 5.27582 14 6.1875C14 7.09918 13.6313 7.97352 12.9749 8.61818C12.3185 9.26284 11.4283 9.625 10.5 9.625ZM10.5 4.125C9.338 4.125 8.4 5.04625 8.4 6.1875C8.4 7.32875 9.338 8.25 10.5 8.25C11.662 8.25 12.6 7.32875 12.6 6.1875C12.6 5.04625 11.662 4.125 10.5 4.125Z" fill="#444242"/>
<path d="M18.9 15.125C18.508 15.125 18.2 14.8225 18.2 14.4375C18.2 14.0525 18.508 13.75 18.9 13.75C19.292 13.75 19.6 13.4475 19.6 13.0625C19.6 12.1508 19.2313 11.2765 18.5749 10.6318C17.9185 9.98716 17.0283 9.625 16.1 9.625H14.7C14.308 9.625 14 9.3225 14 8.9375C14 8.5525 14.308 8.25 14.7 8.25C15.862 8.25 16.8 7.32875 16.8 6.1875C16.8 5.04625 15.862 4.125 14.7 4.125C14.308 4.125 14 3.8225 14 3.4375C14 3.0525 14.308 2.75 14.7 2.75C15.6283 2.75 16.5185 3.11216 17.1749 3.75682C17.8313 4.40148 18.2 5.27582 18.2 6.1875C18.2 7.04 17.892 7.81 17.36 8.415C19.446 8.965 21 10.835 21 13.0625C21 14.2037 20.062 15.125 18.9 15.125ZM2.1 15.125C0.938 15.125 0 14.2037 0 13.0625C0 10.835 1.54 8.965 3.64 8.415C3.122 7.81 2.8 7.04 2.8 6.1875C2.8 5.27582 3.16875 4.40148 3.82513 3.75682C4.4815 3.11216 5.37174 2.75 6.3 2.75C6.692 2.75 7 3.0525 7 3.4375C7 3.8225 6.692 4.125 6.3 4.125C5.138 4.125 4.2 5.04625 4.2 6.1875C4.2 7.32875 5.138 8.25 6.3 8.25C6.692 8.25 7 8.5525 7 8.9375C7 9.3225 6.692 9.625 6.3 9.625H4.9C3.97174 9.625 3.0815 9.98716 2.42513 10.6318C1.76875 11.2765 1.4 12.1508 1.4 13.0625C1.4 13.4475 1.708 13.75 2.1 13.75C2.492 13.75 2.8 14.0525 2.8 14.4375C2.8 14.8225 2.492 15.125 2.1 15.125ZM14.7 19.25H6.3C5.138 19.25 4.2 18.3287 4.2 17.1875V15.8125C4.2 13.1588 6.398 11 9.1 11H11.9C14.602 11 16.8 13.1588 16.8 15.8125V17.1875C16.8 18.3287 15.862 19.25 14.7 19.25ZM9.1 12.375C8.17174 12.375 7.2815 12.7372 6.62513 13.3818C5.96875 14.0265 5.6 14.9008 5.6 15.8125V17.1875C5.6 17.5725 5.908 17.875 6.3 17.875H14.7C15.092 17.875 15.4 17.5725 15.4 17.1875V15.8125C15.4 14.9008 15.0313 14.0265 14.3749 13.3818C13.7185 12.7372 12.8283 12.375 11.9 12.375H9.1Z" fill="#444242"/>
</svg>
