<svg width="23" height="23" viewBox="0 0 23 23" fill="none" xmlns="http://www.w3.org/2000/svg">
<path fill-rule="evenodd" clip-rule="evenodd" d="M15.9996 5.50072C15.9998 6.22472 15.7756 6.93098 15.3577 7.52224C14.9399 8.11349 14.349 8.56065 13.6665 8.80215V11.3336H17.1661C18.0943 11.3336 18.9844 11.7023 19.6407 12.3587C20.297 13.015 20.6658 13.9052 20.6658 14.8334V16.1983C21.4444 16.4735 22.1007 17.0151 22.5186 17.7274C22.9366 18.4398 23.0892 19.2769 22.9496 20.0909C22.81 20.9049 22.3871 21.6433 21.7557 22.1757C21.1243 22.708 20.3251 23 19.4992 23C18.6734 23 17.8741 22.708 17.2427 22.1757C16.6113 21.6433 16.1884 20.9049 16.0488 20.0909C15.9092 19.2769 16.0619 18.4398 16.4798 17.7274C16.8977 17.0151 17.554 16.4735 18.3327 16.1983V14.8334C18.3327 14.524 18.2098 14.2272 17.991 14.0085C17.7722 13.7897 17.4755 13.6668 17.1661 13.6668H7.83385C7.52447 13.6668 7.22776 13.7897 7.00899 14.0085C6.79022 14.2272 6.66732 14.524 6.66732 14.8334V16.1983C7.44597 16.4735 8.10227 17.0151 8.5202 17.7274C8.93813 18.4398 9.09078 19.2769 8.95118 20.0909C8.81157 20.9049 8.3887 21.6433 7.7573 22.1757C7.1259 22.708 6.32664 23 5.50078 23C4.67493 23 3.87567 22.708 3.24427 22.1757C2.61287 21.6433 2.18999 20.9049 2.05039 20.0909C1.91078 19.2769 2.06344 18.4398 2.48137 17.7274C2.8993 17.0151 3.55559 16.4735 4.33425 16.1983V14.8334C4.33425 13.9052 4.70295 13.015 5.35926 12.3587C6.01556 11.7023 6.9057 11.3336 7.83385 11.3336H11.3335V8.80215C10.7282 8.58847 10.1933 8.21249 9.78734 7.71532C9.38135 7.21815 9.11985 6.61893 9.03143 5.98316C8.94301 5.34738 9.03109 4.69954 9.28602 4.11045C9.54095 3.52136 9.95293 3.01369 10.4769 2.64296C11.0009 2.27223 11.6167 2.05269 12.2571 2.00836C12.8974 1.96403 13.5376 2.0966 14.1077 2.39159C14.6777 2.68658 15.1557 3.13263 15.4894 3.68097C15.8231 4.22931 15.9996 4.85883 15.9996 5.50072ZM12.5 4.33414C12.1906 4.33414 11.8939 4.45705 11.6751 4.67583C11.4564 4.8946 11.3335 5.19133 11.3335 5.50072C11.3335 5.81012 11.4564 6.10684 11.6751 6.32562C11.8939 6.5444 12.1906 6.6673 12.5 6.6673C12.8094 6.6673 13.1061 6.5444 13.3249 6.32562C13.5436 6.10684 13.6665 5.81012 13.6665 5.50072C13.6665 5.19133 13.5436 4.8946 13.3249 4.67583C13.1061 4.45705 12.8094 4.33414 12.5 4.33414ZM5.50078 18.3331C5.1914 18.3331 4.89468 18.456 4.67592 18.6748C4.45715 18.8936 4.33425 19.1903 4.33425 19.4997C4.33425 19.8091 4.45715 20.1058 4.67592 20.3246C4.89468 20.5434 5.1914 20.6663 5.50078 20.6663C5.81017 20.6663 6.10688 20.5434 6.32565 20.3246C6.54442 20.1058 6.66732 19.8091 6.66732 19.4997C6.66732 19.1903 6.54442 18.8936 6.32565 18.6748C6.10688 18.456 5.81017 18.3331 5.50078 18.3331ZM19.4992 18.3331C19.1898 18.3331 18.8931 18.456 18.6744 18.6748C18.4556 18.8936 18.3327 19.1903 18.3327 19.4997C18.3327 19.8091 18.4556 20.1058 18.6744 20.3246C18.8931 20.5434 19.1898 20.6663 19.4992 20.6663C19.8086 20.6663 20.1053 20.5434 20.3241 20.3246C20.5429 20.1058 20.6658 19.8091 20.6658 19.4997C20.6658 19.1903 20.5429 18.8936 20.3241 18.6748C20.1053 18.456 19.8086 18.3331 19.4992 18.3331Z" fill="#444242"/>
</svg>
