<svg width="17" height="17" viewBox="0 0 17 17" fill="none" xmlns="http://www.w3.org/2000/svg">
<path d="M2.35635 0L2.19374 0.495645L0.762783 4.53333H0.73913V4.58093L0.0458259 6.54009L0 6.65796V7.55556H1.47826V6.91787L1.77835 6.04444H4.1347L4.43478 6.91787V7.55556H5.91304V6.65796L5.86648 6.54009L5.17391 4.58018V4.53333H5.15174L3.71783 0.495645L3.55817 0H2.35413H2.35635ZM12.5652 0V14.1198L10.6479 12.1599L9.6087 13.2222L12.7722 16.4809L13.3043 17L13.8365 16.4802L17 13.2222L15.9608 12.1599L14.0435 14.1191V0H12.5652ZM2.95652 2.76231L3.58035 4.53333H2.3327L2.95652 2.76231ZM0 9.06667V10.5778H4.11178L0.206957 14.5671L0 14.8044V16.6222H5.91304V15.1111H1.80126L5.70535 11.1218L5.9123 10.8845V9.06667H0Z" fill="#444242"/>
</svg>
