<svg width="20" height="21" viewBox="0 0 20 21" fill="none" xmlns="http://www.w3.org/2000/svg">
<path d="M17.6407 11.529C17.6818 11.193 17.7127 10.857 17.7127 10.5C17.7127 10.143 17.6818 9.807 17.6407 9.471L19.8099 7.7385C20.0052 7.581 20.0566 7.2975 19.9333 7.0665L17.8772 3.4335C17.7846 3.2655 17.6099 3.171 17.4248 3.171C17.3631 3.171 17.3014 3.1815 17.25 3.2025L14.6902 4.2525C14.1556 3.8325 13.5799 3.486 12.9528 3.2235L12.5621 0.441C12.5313 0.189 12.3154 0 12.0584 0H7.94616C7.68915 0 7.47326 0.189 7.44242 0.441L7.05176 3.2235C6.42464 3.486 5.84894 3.843 5.31435 4.2525L2.7545 3.2025C2.69281 3.1815 2.63113 3.171 2.56945 3.171C2.39468 3.171 2.21991 3.2655 2.12738 3.4335L0.0712765 7.0665C-0.0623704 7.2975 -0.00068705 7.581 0.194643 7.7385L2.36384 9.471C2.32271 9.807 2.29187 10.1535 2.29187 10.5C2.29187 10.8465 2.32271 11.193 2.36384 11.529L0.194643 13.2615C-0.00068705 13.419 -0.0520898 13.7025 0.0712765 13.9335L2.12738 17.5665C2.21991 17.7345 2.39468 17.829 2.57973 17.829C2.64141 17.829 2.70309 17.8185 2.7545 17.7975L5.31435 16.7475C5.84894 17.1675 6.42464 17.514 7.05176 17.7765L7.44242 20.559C7.47326 20.811 7.68915 21 7.94616 21H12.0584C12.3154 21 12.5313 20.811 12.5621 20.559L12.9528 17.7765C13.5799 17.514 14.1556 17.157 14.6902 16.7475L17.25 17.7975C17.3117 17.8185 17.3734 17.829 17.4351 17.829C17.6099 17.829 17.7846 17.7345 17.8772 17.5665L19.9333 13.9335C20.0566 13.7025 20.0052 13.419 19.8099 13.2615L17.6407 11.529ZM15.6052 9.7335C15.6463 10.059 15.6566 10.2795 15.6566 10.5C15.6566 10.7205 15.636 10.9515 15.6052 11.2665L15.4612 12.453L16.3762 13.188L17.4865 14.07L16.7669 15.3405L15.4612 14.805L14.3921 14.364L13.4668 15.078C13.0247 15.414 12.6032 15.666 12.1817 15.8445L11.092 16.296L10.9275 17.4825L10.7219 18.9H9.28263L9.0873 17.4825L8.92281 16.296L7.83308 15.8445C7.39102 15.6555 6.97979 15.414 6.56857 15.099L5.63304 14.364L4.54331 14.8155L3.23768 15.351L2.51804 14.0805L3.62834 13.1985L4.54331 12.4635L4.39938 11.277C4.36854 10.9515 4.34798 10.71 4.34798 10.5C4.34798 10.29 4.36854 10.0485 4.39938 9.7335L4.54331 8.547L3.62834 7.812L2.51804 6.93L3.23768 5.6595L4.54331 6.195L5.61248 6.636L6.53773 5.922C6.97979 5.586 7.4013 5.334 7.8228 5.1555L8.91253 4.704L9.07702 3.5175L9.28263 2.1H10.7116L10.907 3.5175L11.0714 4.704L12.1612 5.1555C12.6032 5.3445 13.0145 5.586 13.4257 5.901L14.3612 6.636L15.451 6.1845L16.7566 5.649L17.4762 6.9195L16.3762 7.812L15.4612 8.547L15.6052 9.7335ZM10.0023 6.3C7.73027 6.3 5.89006 8.1795 5.89006 10.5C5.89006 12.8205 7.73027 14.7 10.0023 14.7C12.2743 14.7 14.1145 12.8205 14.1145 10.5C14.1145 8.1795 12.2743 6.3 10.0023 6.3ZM10.0023 12.6C8.87141 12.6 7.94616 11.655 7.94616 10.5C7.94616 9.345 8.87141 8.4 10.0023 8.4C11.1331 8.4 12.0584 9.345 12.0584 10.5C12.0584 11.655 11.1331 12.6 10.0023 12.6Z" fill="#444242"/>
</svg>
